<svg width="45" height="58" viewBox="0 0 45 58" fill="none" xmlns="http://www.w3.org/2000/svg">
<path d="M5.55924 33.3711C5.70387 33.4424 6.03833 33.5938 6.56261 33.8253C7.0869 34.0391 7.80101 34.2439 8.70495 34.4398C9.6089 34.6358 10.5942 34.7337 11.6608 34.7337C13.8845 34.7337 15.8551 34.2172 17.5726 33.1841C19.3082 32.151 20.176 30.7171 20.176 28.8824C20.176 27.7068 19.8054 26.7272 19.0641 25.9434C18.3229 25.1419 17.4009 24.4917 16.2981 23.993C15.2133 23.4943 13.7128 22.8975 11.7964 22.2029C9.28348 21.3301 7.24961 20.5107 5.69483 19.7448C4.15813 18.9789 2.83838 17.8745 1.73557 16.4317C0.650838 14.9889 0.108473 13.1365 0.108473 10.8743C0.108473 7.25846 1.35591 4.5421 3.85079 2.72526C6.36375 0.908421 9.50946 0 13.2879 0C14.8427 0 16.4879 0.169216 18.2235 0.507647C19.959 0.828266 21.4415 1.1667 22.6708 1.52294C23.9002 1.86137 24.6776 2.08402 25.003 2.1909L24.7318 11.4889H21.1251L19.2268 5.63755C19.0822 5.60193 18.7297 5.50396 18.1692 5.34365C17.6088 5.16553 16.8856 5.00522 15.9998 4.86272C15.1139 4.72023 14.228 4.64898 13.3422 4.64898C10.9738 4.64898 9.14789 5.17444 7.86429 6.22535C6.58069 7.25846 5.93889 8.50531 5.93889 9.96591C5.93889 11.1415 6.30951 12.1301 7.05074 12.9316C7.79197 13.7154 8.71399 14.3655 9.8168 14.8821C10.9377 15.3986 12.5015 16.0042 14.5083 16.6989C16.9127 17.5361 18.8833 18.3287 20.42 19.0768C21.9567 19.8249 23.2584 20.8848 24.3251 22.2563C25.4098 23.61 25.9522 25.3289 25.9522 27.4129C25.9522 28.7565 25.8384 29.1418 25.5617 30.4181C25.285 31.6944 25.285 32.4034 25.285 32.9707C25.0515 33.3158 24.2738 33.6831 23.9996 34.0658C22.698 35.8648 20.9443 37.2007 18.7387 38.0735C16.5512 38.9463 14.1196 39.3827 11.4439 39.3827C9.70833 39.3827 7.99988 39.2224 6.31855 38.9018C4.63722 38.5812 3.23611 38.2516 2.11522 37.9132C1.01241 37.557 0.30734 37.3254 0 37.2185V27.6267H4.44739L5.55924 33.3711Z" fill="white"/>
<path d="M19.7258 24.0678L15.0072 22.9724L18.0142 18.0122C18.0142 18.0122 19.6059 18.6947 21.5032 19.0768C23.4004 19.459 24.4937 19.6406 25.285 19.686C26.0764 19.7314 31.6578 19.686 31.6578 19.686C35.2917 19.686 38.1933 20.4965 40.3628 22.1174C42.5322 23.7205 43.617 26.1073 43.617 29.2779C43.617 33.9803 41.2034 36.9371 36.3764 38.1483C39.2329 38.8074 41.3842 39.9028 42.8305 41.4347C44.2768 42.9487 45 44.819 45 47.0455C45 50.8039 43.8068 53.5737 41.4204 55.3549C39.034 57.1183 35.5086 58 30.8443 58H15.0072V54.7137L19.7258 53.6182L20.5775 29.6381L19.7258 24.0678ZM29.4341 36.1177C32.0375 36.1177 34.0804 35.6012 35.5629 34.5681C37.0453 33.5172 37.7865 31.9319 37.7865 29.8122C37.7865 27.9598 37.1899 26.5437 35.9967 25.564C34.8216 24.5665 33.2849 24.0678 31.3866 24.0678H25.285V36.1177H29.4341ZM31.1155 53.6182C33.7369 53.6182 35.7346 53.0838 37.1086 52.0151C38.4826 50.9286 39.1696 49.37 39.1696 47.3394C39.1696 44.721 38.356 42.8775 36.7289 41.8087C35.1018 40.74 32.6702 40.2056 29.4341 40.2056H25.285V53.6182H31.1155Z" fill="white"/>
</svg>
